<svg width="0" height="0" class="hidden">
  <symbol xmlns="http://www.w3.org/2000/svg" viewBox="0 0 18 18" id="instagram-logo">
    <g clip-path="url(#clip0_49_0)">
      <path d="M13.0325 0H4.96721C2.22829 0 0 2.2284 0 4.96732V13.0326C0 15.7716 2.22829 17.9999 4.96721 17.9999H13.0325C15.7716 17.9999 17.9999 15.7715 17.9999 13.0326V4.96732C18 2.2284 15.7716 0 13.0325 0ZM16.403 13.0326C16.403 14.891 14.891 16.4029 13.0326 16.4029H4.96721C3.1089 16.403 1.59704 14.891 1.59704 13.0326V4.96732C1.59704 3.10901 3.1089 1.59704 4.96721 1.59704H13.0325C14.8909 1.59704 16.4029 3.10901 16.4029 4.96732V13.0326H16.403Z"></path>
      <path d="M8.99993 4.36182C6.44244 4.36182 4.36182 6.44244 4.36182 8.99993C4.36182 11.5573 6.44244 13.6378 8.99993 13.6378C11.5574 13.6378 13.6381 11.5573 13.6381 8.99993C13.6381 6.44244 11.5574 4.36182 8.99993 4.36182ZM8.99993 12.0407C7.32315 12.0407 5.95885 10.6766 5.95885 8.99983C5.95885 7.32294 7.32304 5.95875 8.99993 5.95875C10.6768 5.95875 12.041 7.32294 12.041 8.99983C12.041 10.6766 10.6767 12.0407 8.99993 12.0407Z"></path>
      <path d="M13.8326 3.00781C13.5249 3.00781 13.2226 3.13238 13.0053 3.35064C12.787 3.56784 12.6614 3.87021 12.6614 4.17897C12.6614 4.48678 12.7871 4.78904 13.0053 5.0073C13.2225 5.2245 13.5249 5.35013 13.8326 5.35013C14.1414 5.35013 14.4427 5.2245 14.6609 5.0073C14.8792 4.78904 15.0037 4.48667 15.0037 4.17897C15.0037 3.87021 14.8792 3.56784 14.6609 3.35064C14.4437 3.13238 14.1414 3.00781 13.8326 3.00781Z"></path>
    </g>
    <defs>
      <clipPath id="clip0_49_0">
        <rect width="18" height="18"></rect>
      </clipPath>
    </defs>
  </symbol>
  <symbol xmlns="http://www.w3.org/2000/svg" viewBox="0 0 18 18" id="phone-call">
    <g clip-path="url(#clip0_49_27)">
      <path d="M14.2257 11.1502C13.8572 10.7665 13.4127 10.5614 12.9416 10.5614C12.4743 10.5614 12.026 10.7627 11.6423 11.1464L10.4418 12.3431C10.3431 12.2899 10.2443 12.2405 10.1493 12.1911C10.0126 12.1228 9.88339 12.0582 9.77322 11.9898C8.64871 11.2756 7.62677 10.3448 6.64662 9.14053C6.17175 8.54029 5.85263 8.03502 5.62089 7.52215C5.93241 7.23722 6.22113 6.9409 6.50226 6.65597C6.60863 6.5496 6.71501 6.43943 6.82138 6.33305C7.61917 5.53526 7.61917 4.50193 6.82138 3.70413L5.78425 2.667C5.66648 2.54923 5.54491 2.42766 5.43094 2.30609C5.20299 2.07055 4.96366 1.82741 4.71672 1.59947C4.34821 1.23477 3.90753 1.04102 3.44405 1.04102C2.98057 1.04102 2.53228 1.23477 2.15238 1.59947C2.14858 1.60327 2.14858 1.60327 2.14478 1.60707L0.853113 2.91014C0.366838 3.39641 0.0895088 3.98906 0.0287245 4.67668C-0.0624521 5.786 0.264264 6.81933 0.515 7.49556C1.13044 9.15573 2.04981 10.6943 3.42125 12.3431C5.08523 14.33 7.08731 15.899 9.37432 17.0045C10.2481 17.4186 11.4144 17.9087 12.7175 17.9923C12.7972 17.9961 12.8808 17.9999 12.9568 17.9999C13.8344 17.9999 14.5714 17.6845 15.1488 17.0577C15.1526 17.0501 15.1602 17.0463 15.164 17.0387C15.3616 16.7994 15.5895 16.5828 15.8289 16.3511C15.9922 16.1953 16.1594 16.032 16.3227 15.861C16.6988 15.4697 16.8964 15.0138 16.8964 14.5465C16.8964 14.0755 16.695 13.6234 16.3113 13.2435L14.2257 11.1502ZM15.5857 15.1506C15.5819 15.1506 15.5819 15.1544 15.5857 15.1506C15.4376 15.3101 15.2856 15.4545 15.1222 15.6141C14.8753 15.8496 14.6246 16.0965 14.389 16.3739C14.0053 16.7842 13.5532 16.9779 12.9606 16.9779C12.9036 16.9779 12.8428 16.9779 12.7858 16.9741C11.6575 16.9019 10.609 16.4613 9.82261 16.0851C7.67236 15.0442 5.78425 13.5664 4.21525 11.6935C2.91978 10.1321 2.0536 8.68845 1.47995 7.13845C1.12664 6.19249 0.997476 5.45548 1.05446 4.76026C1.09245 4.31577 1.26341 3.94727 1.57873 3.63195L2.87419 2.33648C3.06035 2.16173 3.25789 2.06675 3.45165 2.06675C3.69098 2.06675 3.88473 2.21111 4.0063 2.33268C4.0101 2.33648 4.0139 2.34028 4.0177 2.34408C4.24944 2.56062 4.46978 2.78477 4.70152 3.02411C4.81929 3.14567 4.94086 3.26724 5.06243 3.39261L6.09956 4.42974C6.50226 4.83244 6.50226 5.20475 6.09956 5.60744C5.98939 5.71761 5.88302 5.82778 5.77285 5.93416C5.45373 6.26087 5.14981 6.5648 4.81929 6.86112C4.8117 6.86872 4.8041 6.87252 4.8003 6.88011C4.47358 7.20683 4.53437 7.52595 4.60275 7.74249C4.60655 7.75389 4.61035 7.76529 4.61415 7.77668C4.88388 8.43012 5.26378 9.04556 5.84123 9.77877L5.84503 9.78257C6.89356 11.0742 7.99908 12.081 9.21856 12.8522C9.37432 12.951 9.53388 13.0307 9.68584 13.1067C9.82261 13.1751 9.95177 13.2397 10.0619 13.3081C10.0771 13.3157 10.0923 13.3271 10.1075 13.3347C10.2367 13.3992 10.3583 13.4296 10.4836 13.4296C10.799 13.4296 10.9965 13.2321 11.0611 13.1675L12.3604 11.8682C12.4895 11.7391 12.6947 11.5833 12.934 11.5833C13.1695 11.5833 13.3633 11.7315 13.4811 11.8606C13.4849 11.8644 13.4849 11.8644 13.4887 11.8682L15.5819 13.9615C15.9732 14.349 15.9732 14.7479 15.5857 15.1506Z"></path>
      <path d="M9.72764 4.28157C10.723 4.44872 11.6271 4.9198 12.349 5.64162C13.0708 6.36343 13.538 7.2676 13.709 8.26294C13.7508 8.51368 13.9673 8.68843 14.2143 8.68843C14.2447 8.68843 14.2713 8.68463 14.3017 8.68083C14.5828 8.63525 14.7689 8.36932 14.7233 8.08819C14.5182 6.8839 13.9483 5.78598 13.0784 4.916C12.2084 4.04603 11.1105 3.47617 9.90619 3.27103C9.62506 3.22544 9.36293 3.41159 9.31354 3.68892C9.26416 3.96625 9.44651 4.23598 9.72764 4.28157Z"></path>
      <path d="M17.9791 7.94018C17.641 5.95709 16.7064 4.15255 15.2704 2.71652C13.8344 1.28049 12.0299 0.345932 10.0468 0.00781895C9.76943 -0.0415683 9.5073 0.148383 9.45791 0.425711C9.41232 0.706839 9.59848 0.968972 9.8796 1.01836C11.6499 1.31848 13.2645 2.15807 14.5486 3.43834C15.8327 4.72241 16.6685 6.33699 16.9686 8.10734C17.0104 8.35807 17.2269 8.53283 17.4739 8.53283C17.5042 8.53283 17.5308 8.52903 17.5612 8.52523C17.8386 8.48344 18.0285 8.21751 17.9791 7.94018Z"></path>
    </g>
    <defs>
      <clipPath id="clip0_49_27">
        <rect width="18" height="18"></rect>
      </clipPath>
    </defs>
  </symbol>
  <symbol xmlns="http://www.w3.org/2000/svg" viewBox="0 0 18 18" id="telegram">
    <g clip-path="url(#clip0_49_25)">
      <path d="M17.866 0.721609C17.7103 0.547235 17.4645 0.500478 17.261 0.589422L0.315832 8.00733C0.128099 8.0896 0.00470168 8.27347 0.000131413 8.47878C-0.00443886 8.68373 0.110521 8.87287 0.294738 8.96358L4.34083 10.9534L5.34911 17.0023C5.3818 17.2319 5.56215 17.4165 5.79699 17.4499C5.96574 17.4741 6.13344 17.4147 6.24945 17.2952L9.44372 14.1009L14.002 17.3571C14.1483 17.4611 14.3367 17.484 14.5027 17.4182C14.6689 17.3525 14.7906 17.2066 14.8257 17.0312L17.9898 1.17582C18.0211 1.01868 17.9806 0.85028 17.866 0.721609ZM4.75849 9.98345L1.77902 8.51815L13.5499 3.36534L4.75849 9.98345ZM6.40871 11.5511L5.91828 14.0032L5.38918 10.8286L11.8568 5.95985L6.55249 11.2821C6.47796 11.3566 6.42839 11.4537 6.40871 11.5511ZM6.72968 15.3233L7.28303 12.5576L8.57361 13.4794L6.72968 15.3233ZM13.9511 16.0243L7.73795 11.5866L16.6138 2.6812L13.9511 16.0243Z"></path>
    </g>
    <defs>
      <clipPath id="clip0_49_25">
        <rect width="18" height="18"></rect>
      </clipPath>
    </defs>
  </symbol>
  <symbol xmlns="http://www.w3.org/2000/svg" viewBox="0 0 18 18" id="viber">
    <g clip-path="url(#clip0_49_20)">
      <path d="M17.2436 6.35298C17.2437 4.66246 16.5811 3.06889 15.378 1.86575C14.1748 0.662613 12.5813 0 10.8906 0H7.12642C7.12628 0 7.12628 0 7.12628 0C5.4359 0 3.84219 0.662613 2.63919 1.86562C1.43605 3.06889 0.773438 4.66246 0.773438 6.35298V9.31187C0.773438 10.6212 1.17279 11.8805 1.92838 12.954C2.59497 13.901 3.49146 14.6408 4.53667 15.1098V16.8094C4.53667 17.6881 5.02872 18 5.45004 18C5.75107 18 6.05209 17.8514 6.34515 17.5585L8.23865 15.665L10.8907 15.6649C12.5813 15.6649 14.1748 15.0022 15.378 13.7992C16.5811 12.5961 17.2437 11.0024 17.2437 9.31187L17.2436 6.35298ZM10.8907 14.6102L8.02029 14.6103C7.88036 14.6103 7.74632 14.6658 7.64745 14.7647L5.59946 16.8127C5.59685 16.8154 5.5941 16.818 5.59135 16.8206C5.59135 16.8169 5.59135 16.8131 5.59135 16.8094V14.7578C5.59135 14.539 5.45636 14.3431 5.25201 14.2651C3.20416 13.4837 1.82826 11.4931 1.82826 9.31187V6.35298C1.82826 4.94412 2.38115 3.61533 3.38503 2.61131C4.3889 1.60757 5.71756 1.05469 7.12642 1.05469H10.8906C12.2995 1.05469 13.6283 1.60757 14.6321 2.61145C15.6362 3.61546 16.189 4.94426 16.1889 6.35298L16.189 9.31187C16.1889 12.2334 13.8121 14.6102 10.8907 14.6102Z"></path>
      <path d="M10.4109 8.62508C10.2051 8.41908 9.87122 8.41908 9.66522 8.62508L9.23923 9.05093L7.58853 7.40038L8.01453 6.97452C8.11341 6.87564 8.16902 6.74147 8.16902 6.60153C8.16902 6.46173 8.11341 6.32756 8.01453 6.22868L6.01749 4.23164C5.91861 4.13277 5.78458 4.07715 5.64464 4.07715C5.50484 4.07715 5.37067 4.13277 5.27179 4.23164L3.87378 5.62965C3.11778 6.38565 3.11778 7.61598 3.87392 8.37239L8.26721 12.766C8.63251 13.1311 9.11962 13.3322 9.63858 13.3322C10.1577 13.3322 10.6448 13.1311 11.0101 12.766L12.4081 11.3681C12.507 11.2691 12.5626 11.135 12.5626 10.9951C12.5626 10.8553 12.507 10.7211 12.4081 10.6223L10.4109 8.62508ZM10.2643 12.02C10.0982 12.186 9.87602 12.2775 9.63858 12.2775C9.40114 12.2775 9.17894 12.186 9.01291 12.02L4.61975 7.62656C4.27478 7.28159 4.27464 6.72018 4.61962 6.37535L5.64464 5.35019L6.89585 6.60153L6.46985 7.02739C6.37097 7.12627 6.31536 7.26044 6.31536 7.40024C6.31536 7.54018 6.37097 7.67421 6.46985 7.77322L8.86624 10.1696C9.07224 10.3755 9.40608 10.3756 9.61208 10.1696L10.0381 9.74376L11.2893 10.995L10.2643 12.02Z"></path>
      <path d="M9.13651 2.33301C8.84523 2.33301 8.60916 2.56908 8.60916 2.86035C8.60916 3.15149 8.84523 3.3877 9.13651 3.3877C10.3434 3.3877 11.4781 3.85764 12.3315 4.71114C13.185 5.5645 13.6549 6.69911 13.6549 7.9061C13.6549 8.19724 13.891 8.43344 14.1823 8.43344C14.4734 8.43344 14.7096 8.19737 14.7096 7.9061C14.7096 6.41745 14.1299 5.01793 13.0773 3.9653C12.0247 2.91267 10.6252 2.33301 9.13651 2.33301Z"></path>
      <path d="M11.3956 7.9059C11.3956 8.19704 11.6318 8.43324 11.9229 8.43324C12.2142 8.43324 12.4503 8.19704 12.4503 7.9059C12.4503 6.07874 10.9637 4.59229 9.13651 4.59229C8.84523 4.59229 8.60916 4.82835 8.60916 5.11963C8.60916 5.4109 8.84523 5.64697 9.13651 5.64697C10.3822 5.64697 11.3956 6.66032 11.3956 7.9059Z"></path>
    </g>
    <defs>
      <clipPath id="clip0_49_20">
        <rect width="18" height="18"></rect>
      </clipPath>
    </defs>
  </symbol>
</svg>